<mxfile host="65bd71144e">
    <diagram name="Page-1" id="1Ryli8fB0829bHw35d7t">
        <mxGraphModel dx="1610" dy="1200" grid="1" gridSize="10" guides="1" tooltips="1" connect="1" arrows="1" fold="1" page="0" pageScale="1" pageWidth="827" pageHeight="1169" math="0" shadow="0">
            <root>
                <mxCell id="0"/>
                <mxCell id="1" parent="0"/>
                <mxCell id="tuJECXELKrIchDs7tuP_-73" value="" style="rounded=0;whiteSpace=wrap;html=1;dashed=1;dashPattern=1 2;fillColor=none;" parent="1" vertex="1">
                    <mxGeometry x="440" y="100" width="200" height="80" as="geometry"/>
                </mxCell>
                <mxCell id="tuJECXELKrIchDs7tuP_-1" value="CLI&lt;br&gt;Commands" style="whiteSpace=wrap;html=1;aspect=fixed;" parent="1" vertex="1">
                    <mxGeometry x="80" y="-240" width="80" height="80" as="geometry"/>
                </mxCell>
                <mxCell id="tuJECXELKrIchDs7tuP_-2" value="" style="endArrow=none;dashed=1;html=1;rounded=0;entryX=0.5;entryY=1;entryDx=0;entryDy=0;dashPattern=8 8;" parent="1" source="tuJECXELKrIchDs7tuP_-47" target="tuJECXELKrIchDs7tuP_-1" edge="1">
                    <mxGeometry width="50" height="50" relative="1" as="geometry">
                        <mxPoint x="120" y="320" as="sourcePoint"/>
                        <mxPoint x="460" y="90" as="targetPoint"/>
                    </mxGeometry>
                </mxCell>
                <mxCell id="tuJECXELKrIchDs7tuP_-4" value="Data&lt;br&gt;Keeper&lt;br&gt;(Client)" style="whiteSpace=wrap;html=1;aspect=fixed;" parent="1" vertex="1">
                    <mxGeometry x="440" y="-240" width="80" height="80" as="geometry"/>
                </mxCell>
                <mxCell id="tuJECXELKrIchDs7tuP_-7" value="Data&lt;br&gt;Cipher" style="whiteSpace=wrap;html=1;aspect=fixed;" parent="1" vertex="1">
                    <mxGeometry x="560" y="-240" width="80" height="80" as="geometry"/>
                </mxCell>
                <mxCell id="tuJECXELKrIchDs7tuP_-13" value="" style="endArrow=none;dashed=1;html=1;rounded=0;entryX=0.5;entryY=1;entryDx=0;entryDy=0;dashPattern=8 8;exitX=0.5;exitY=0;exitDx=0;exitDy=0;" parent="1" target="tuJECXELKrIchDs7tuP_-4" edge="1">
                    <mxGeometry width="50" height="50" relative="1" as="geometry">
                        <mxPoint x="480" y="160" as="sourcePoint"/>
                        <mxPoint x="530" y="-60" as="targetPoint"/>
                    </mxGeometry>
                </mxCell>
                <mxCell id="tuJECXELKrIchDs7tuP_-14" value="" style="endArrow=none;dashed=1;html=1;rounded=0;entryX=0.5;entryY=1;entryDx=0;entryDy=0;dashPattern=8 8;" parent="1" source="tuJECXELKrIchDs7tuP_-54" target="tuJECXELKrIchDs7tuP_-7" edge="1">
                    <mxGeometry width="50" height="50" relative="1" as="geometry">
                        <mxPoint x="600" y="570" as="sourcePoint"/>
                        <mxPoint x="910" y="300" as="targetPoint"/>
                    </mxGeometry>
                </mxCell>
                <mxCell id="tuJECXELKrIchDs7tuP_-20" value="" style="rounded=0;whiteSpace=wrap;html=1;" parent="1" vertex="1">
                    <mxGeometry x="110" y="-120" width="20" height="40" as="geometry"/>
                </mxCell>
                <mxCell id="tuJECXELKrIchDs7tuP_-21" value="" style="endArrow=classic;html=1;rounded=0;entryX=0;entryY=0;entryDx=0;entryDy=0;" parent="1" target="tuJECXELKrIchDs7tuP_-20" edge="1">
                    <mxGeometry width="50" height="50" relative="1" as="geometry">
                        <mxPoint x="-20" y="-120" as="sourcePoint"/>
                        <mxPoint x="320" y="40" as="targetPoint"/>
                    </mxGeometry>
                </mxCell>
                <mxCell id="tuJECXELKrIchDs7tuP_-28" value="Access&lt;br&gt;Manager&lt;br&gt;(Client)" style="whiteSpace=wrap;html=1;aspect=fixed;" parent="1" vertex="1">
                    <mxGeometry x="200" y="-240" width="80" height="80" as="geometry"/>
                </mxCell>
                <mxCell id="tuJECXELKrIchDs7tuP_-29" value="" style="endArrow=none;dashed=1;html=1;rounded=0;entryX=0.5;entryY=1;entryDx=0;entryDy=0;dashPattern=8 8;" parent="1" target="tuJECXELKrIchDs7tuP_-28" edge="1">
                    <mxGeometry width="50" height="50" relative="1" as="geometry">
                        <mxPoint x="240" y="360" as="sourcePoint"/>
                        <mxPoint x="290" y="190" as="targetPoint"/>
                    </mxGeometry>
                </mxCell>
                <mxCell id="tuJECXELKrIchDs7tuP_-30" value="DB&lt;br&gt;Connector&lt;br&gt;(Client)" style="whiteSpace=wrap;html=1;aspect=fixed;" parent="1" vertex="1">
                    <mxGeometry x="320" y="-240" width="80" height="80" as="geometry"/>
                </mxCell>
                <mxCell id="tuJECXELKrIchDs7tuP_-31" value="" style="endArrow=none;dashed=1;html=1;rounded=0;entryX=0.5;entryY=1;entryDx=0;entryDy=0;dashPattern=8 8;" parent="1" source="tuJECXELKrIchDs7tuP_-35" target="tuJECXELKrIchDs7tuP_-30" edge="1">
                    <mxGeometry width="50" height="50" relative="1" as="geometry">
                        <mxPoint x="360" y="310" as="sourcePoint"/>
                        <mxPoint x="410" y="-60" as="targetPoint"/>
                    </mxGeometry>
                </mxCell>
                <mxCell id="tuJECXELKrIchDs7tuP_-32" value="" style="rounded=0;whiteSpace=wrap;html=1;" parent="1" vertex="1">
                    <mxGeometry x="230" y="-80" width="20" height="40" as="geometry"/>
                </mxCell>
                <mxCell id="tuJECXELKrIchDs7tuP_-33" value="" style="endArrow=classic;html=1;rounded=0;exitX=1;exitY=1;exitDx=0;exitDy=0;entryX=0;entryY=0;entryDx=0;entryDy=0;" parent="1" source="tuJECXELKrIchDs7tuP_-20" target="tuJECXELKrIchDs7tuP_-32" edge="1">
                    <mxGeometry width="50" height="50" relative="1" as="geometry">
                        <mxPoint x="530" y="100" as="sourcePoint"/>
                        <mxPoint x="580" y="50" as="targetPoint"/>
                    </mxGeometry>
                </mxCell>
                <mxCell id="tuJECXELKrIchDs7tuP_-36" value="" style="endArrow=none;dashed=1;html=1;rounded=0;entryX=0.5;entryY=1;entryDx=0;entryDy=0;dashPattern=8 8;startArrow=none;" parent="1" source="25" target="tuJECXELKrIchDs7tuP_-35" edge="1">
                    <mxGeometry width="50" height="50" relative="1" as="geometry">
                        <mxPoint x="360" y="410" as="sourcePoint"/>
                        <mxPoint x="360" y="120" as="targetPoint"/>
                    </mxGeometry>
                </mxCell>
                <mxCell id="tuJECXELKrIchDs7tuP_-35" value="" style="rounded=0;whiteSpace=wrap;html=1;" parent="1" vertex="1">
                    <mxGeometry x="350" y="-40" width="20" height="40" as="geometry"/>
                </mxCell>
                <mxCell id="tuJECXELKrIchDs7tuP_-37" value="" style="endArrow=classic;html=1;rounded=0;exitX=1;exitY=1;exitDx=0;exitDy=0;entryX=0;entryY=0;entryDx=0;entryDy=0;" parent="1" source="tuJECXELKrIchDs7tuP_-32" target="tuJECXELKrIchDs7tuP_-35" edge="1">
                    <mxGeometry width="50" height="50" relative="1" as="geometry">
                        <mxPoint x="530" y="100" as="sourcePoint"/>
                        <mxPoint x="580" y="50" as="targetPoint"/>
                    </mxGeometry>
                </mxCell>
                <mxCell id="tuJECXELKrIchDs7tuP_-38" value="getCreds()" style="text;strokeColor=none;align=center;fillColor=none;html=1;verticalAlign=middle;whiteSpace=wrap;rounded=0;" parent="1" vertex="1">
                    <mxGeometry x="150" y="-103" width="60" height="30" as="geometry"/>
                </mxCell>
                <mxCell id="tuJECXELKrIchDs7tuP_-41" value="&lt;div style=&quot;text-align: left;&quot;&gt;&lt;span style=&quot;background-color: initial;&quot;&gt;command: add-file&lt;/span&gt;&lt;/div&gt;&lt;div style=&quot;text-align: left;&quot;&gt;&lt;span style=&quot;background-color: initial;&quot;&gt;path&lt;/span&gt;&lt;/div&gt;&lt;div style=&quot;text-align: left;&quot;&gt;&lt;span style=&quot;background-color: initial;&quot;&gt;metadata&lt;/span&gt;&lt;/div&gt;" style="text;html=1;strokeColor=none;fillColor=none;align=center;verticalAlign=middle;whiteSpace=wrap;rounded=0;" parent="1" vertex="1">
                    <mxGeometry x="-23" y="-128" width="105" height="30" as="geometry"/>
                </mxCell>
                <mxCell id="tuJECXELKrIchDs7tuP_-44" value="" style="endArrow=classic;html=1;rounded=0;dashed=1;exitX=0;exitY=1;exitDx=0;exitDy=0;entryX=1;entryY=0;entryDx=0;entryDy=0;" parent="1" source="tuJECXELKrIchDs7tuP_-35" target="tuJECXELKrIchDs7tuP_-45" edge="1">
                    <mxGeometry width="50" height="50" relative="1" as="geometry">
                        <mxPoint x="630" y="80" as="sourcePoint"/>
                        <mxPoint x="280" y="40" as="targetPoint"/>
                    </mxGeometry>
                </mxCell>
                <mxCell id="tuJECXELKrIchDs7tuP_-45" value="" style="rounded=0;whiteSpace=wrap;html=1;" parent="1" vertex="1">
                    <mxGeometry x="230" width="20" height="40" as="geometry"/>
                </mxCell>
                <mxCell id="tuJECXELKrIchDs7tuP_-48" value="" style="endArrow=none;dashed=1;html=1;rounded=0;entryX=0.5;entryY=1;entryDx=0;entryDy=0;dashPattern=8 8;startArrow=none;" parent="1" source="12" target="tuJECXELKrIchDs7tuP_-47" edge="1">
                    <mxGeometry width="50" height="50" relative="1" as="geometry">
                        <mxPoint x="120" y="570" as="sourcePoint"/>
                        <mxPoint x="120" y="120" as="targetPoint"/>
                    </mxGeometry>
                </mxCell>
                <mxCell id="tuJECXELKrIchDs7tuP_-47" value="" style="rounded=0;whiteSpace=wrap;html=1;" parent="1" vertex="1">
                    <mxGeometry x="110" y="40" width="20" height="40" as="geometry"/>
                </mxCell>
                <mxCell id="tuJECXELKrIchDs7tuP_-49" value="" style="endArrow=classic;html=1;rounded=0;entryX=1;entryY=0;entryDx=0;entryDy=0;exitX=0;exitY=1;exitDx=0;exitDy=0;dashed=1;" parent="1" source="tuJECXELKrIchDs7tuP_-45" target="tuJECXELKrIchDs7tuP_-47" edge="1">
                    <mxGeometry width="50" height="50" relative="1" as="geometry">
                        <mxPoint x="630" y="80" as="sourcePoint"/>
                        <mxPoint x="680" y="30" as="targetPoint"/>
                    </mxGeometry>
                </mxCell>
                <mxCell id="tuJECXELKrIchDs7tuP_-51" value="" style="endArrow=none;dashed=1;html=1;rounded=0;entryX=0.5;entryY=1;entryDx=0;entryDy=0;dashPattern=8 8;" parent="1" source="tuJECXELKrIchDs7tuP_-60" target="tuJECXELKrIchDs7tuP_-50" edge="1">
                    <mxGeometry width="50" height="50" relative="1" as="geometry">
                        <mxPoint x="480" y="-100" as="sourcePoint"/>
                        <mxPoint x="480" y="-540" as="targetPoint"/>
                    </mxGeometry>
                </mxCell>
                <mxCell id="tuJECXELKrIchDs7tuP_-52" value="" style="endArrow=classic;html=1;rounded=0;exitX=1;exitY=1;exitDx=0;exitDy=0;entryX=0;entryY=0;entryDx=0;entryDy=0;" parent="1" source="tuJECXELKrIchDs7tuP_-47" edge="1" target="tuJECXELKrIchDs7tuP_-50">
                    <mxGeometry width="50" height="50" relative="1" as="geometry">
                        <mxPoint x="630" y="80" as="sourcePoint"/>
                        <mxPoint x="470" y="80" as="targetPoint"/>
                    </mxGeometry>
                </mxCell>
                <mxCell id="tuJECXELKrIchDs7tuP_-55" value="" style="endArrow=none;dashed=1;html=1;rounded=0;entryX=0.5;entryY=1;entryDx=0;entryDy=0;dashPattern=8 8;" parent="1" edge="1">
                    <mxGeometry width="50" height="50" relative="1" as="geometry">
                        <mxPoint x="600" y="360" as="sourcePoint"/>
                        <mxPoint x="600" y="160" as="targetPoint"/>
                    </mxGeometry>
                </mxCell>
                <mxCell id="tuJECXELKrIchDs7tuP_-54" value="" style="rounded=0;whiteSpace=wrap;html=1;" parent="1" vertex="1">
                    <mxGeometry x="590" y="120" width="20" height="40" as="geometry"/>
                </mxCell>
                <mxCell id="tuJECXELKrIchDs7tuP_-56" value="" style="endArrow=classic;html=1;rounded=0;exitX=1;exitY=1;exitDx=0;exitDy=0;entryX=0;entryY=0;entryDx=0;entryDy=0;" parent="1" source="tuJECXELKrIchDs7tuP_-50" target="tuJECXELKrIchDs7tuP_-54" edge="1">
                    <mxGeometry width="50" height="50" relative="1" as="geometry">
                        <mxPoint x="630" y="70" as="sourcePoint"/>
                        <mxPoint x="680" y="20" as="targetPoint"/>
                    </mxGeometry>
                </mxCell>
                <mxCell id="tuJECXELKrIchDs7tuP_-58" value="userID, key" style="text;html=1;strokeColor=none;fillColor=none;align=center;verticalAlign=middle;whiteSpace=wrap;rounded=0;" parent="1" vertex="1">
                    <mxGeometry x="263" y="-24" width="70" height="30" as="geometry"/>
                </mxCell>
                <mxCell id="tuJECXELKrIchDs7tuP_-61" value="" style="endArrow=none;dashed=1;html=1;rounded=0;entryX=0.5;entryY=1;entryDx=0;entryDy=0;dashPattern=8 8;" parent="1" target="tuJECXELKrIchDs7tuP_-60" edge="1">
                    <mxGeometry width="50" height="50" relative="1" as="geometry">
                        <mxPoint x="480.3333333333335" y="240" as="sourcePoint"/>
                        <mxPoint x="480" y="120" as="targetPoint"/>
                    </mxGeometry>
                </mxCell>
                <mxCell id="tuJECXELKrIchDs7tuP_-62" value="" style="endArrow=classic;html=1;rounded=0;exitX=0;exitY=1;exitDx=0;exitDy=0;entryX=1;entryY=0;entryDx=0;entryDy=0;dashed=1;" parent="1" target="tuJECXELKrIchDs7tuP_-60" edge="1">
                    <mxGeometry width="50" height="50" relative="1" as="geometry">
                        <mxPoint x="590" y="160" as="sourcePoint"/>
                        <mxPoint x="680" y="120" as="targetPoint"/>
                    </mxGeometry>
                </mxCell>
                <mxCell id="tuJECXELKrIchDs7tuP_-63" value="encryptedChunk" style="text;html=1;strokeColor=none;fillColor=none;align=center;verticalAlign=middle;whiteSpace=wrap;rounded=0;" parent="1" vertex="1">
                    <mxGeometry x="507" y="136" width="70" height="30" as="geometry"/>
                </mxCell>
                <mxCell id="tuJECXELKrIchDs7tuP_-70" value="" style="endArrow=none;dashed=1;html=1;rounded=0;entryX=0.5;entryY=1;entryDx=0;entryDy=0;dashPattern=8 8;startArrow=none;" parent="1" edge="1" source="28">
                    <mxGeometry width="50" height="50" relative="1" as="geometry">
                        <mxPoint x="480" y="320" as="sourcePoint"/>
                        <mxPoint x="480.5" y="200" as="targetPoint"/>
                    </mxGeometry>
                </mxCell>
                <mxCell id="27" style="edgeStyle=none;html=1;exitX=0;exitY=1;exitDx=0;exitDy=0;entryX=1;entryY=0;entryDx=0;entryDy=0;" edge="1" parent="1" source="tuJECXELKrIchDs7tuP_-60" target="25">
                    <mxGeometry relative="1" as="geometry">
                        <mxPoint x="590.5" y="200" as="sourcePoint"/>
                    </mxGeometry>
                </mxCell>
                <mxCell id="tuJECXELKrIchDs7tuP_-76" value="LOOP" style="text;html=1;strokeColor=none;fillColor=none;align=center;verticalAlign=middle;whiteSpace=wrap;rounded=0;" parent="1" vertex="1">
                    <mxGeometry x="380" y="95" width="60" height="30" as="geometry"/>
                </mxCell>
                <mxCell id="8DINkmLvaMxGYUUCGCKO-33" value="" style="endArrow=none;dashed=1;html=1;rounded=0;entryX=0.5;entryY=1;entryDx=0;entryDy=0;dashPattern=8 8;exitX=0.5;exitY=0;exitDx=0;exitDy=0;" parent="1" source="tuJECXELKrIchDs7tuP_-50" edge="1">
                    <mxGeometry width="50" height="50" relative="1" as="geometry">
                        <mxPoint x="480" y="330" as="sourcePoint"/>
                        <mxPoint x="480" y="200" as="targetPoint"/>
                    </mxGeometry>
                </mxCell>
                <mxCell id="2" value="getCreds()" style="text;strokeColor=none;align=center;fillColor=none;html=1;verticalAlign=middle;whiteSpace=wrap;rounded=0;" parent="1" vertex="1">
                    <mxGeometry x="271.5" y="-64" width="60" height="30" as="geometry"/>
                </mxCell>
                <mxCell id="3" value="addFile(userID, key, metadata, path)" style="text;html=1;strokeColor=none;fillColor=none;align=center;verticalAlign=middle;whiteSpace=wrap;rounded=0;" parent="1" vertex="1">
                    <mxGeometry x="175" y="57" width="260" height="30" as="geometry"/>
                </mxCell>
                <mxCell id="4" value="encrypt(chunk, key)" style="text;html=1;strokeColor=none;fillColor=none;align=center;verticalAlign=middle;whiteSpace=wrap;rounded=0;" parent="1" vertex="1">
                    <mxGeometry x="480" y="95" width="136" height="30" as="geometry"/>
                </mxCell>
                <mxCell id="8" value="addEntry(entry)" style="text;html=1;strokeColor=none;fillColor=none;align=center;verticalAlign=middle;whiteSpace=wrap;rounded=0;" parent="1" vertex="1">
                    <mxGeometry x="347" y="177" width="153" height="30" as="geometry"/>
                </mxCell>
                <mxCell id="9" value="userID, key" style="text;html=1;strokeColor=none;fillColor=none;align=center;verticalAlign=middle;whiteSpace=wrap;rounded=0;" parent="1" vertex="1">
                    <mxGeometry x="146" y="16" width="70" height="30" as="geometry"/>
                </mxCell>
                <mxCell id="13" value="" style="endArrow=none;dashed=1;html=1;rounded=0;entryX=0.5;entryY=1;entryDx=0;entryDy=0;dashPattern=8 8;" parent="1" target="12" edge="1">
                    <mxGeometry width="50" height="50" relative="1" as="geometry">
                        <mxPoint x="120.5" y="361" as="sourcePoint"/>
                        <mxPoint x="120.5" y="41" as="targetPoint"/>
                    </mxGeometry>
                </mxCell>
                <mxCell id="16" style="edgeStyle=none;html=1;exitX=0;exitY=1;exitDx=0;exitDy=0;dashed=1;" parent="1" source="12" edge="1">
                    <mxGeometry relative="1" as="geometry">
                        <mxPoint x="-20" y="320" as="targetPoint"/>
                    </mxGeometry>
                </mxCell>
                <mxCell id="12" value="" style="rounded=0;whiteSpace=wrap;html=1;" parent="1" vertex="1">
                    <mxGeometry x="110" y="280" width="20" height="40" as="geometry"/>
                </mxCell>
                <mxCell id="15" value="error" style="text;html=1;strokeColor=none;fillColor=none;align=center;verticalAlign=middle;whiteSpace=wrap;rounded=0;" parent="1" vertex="1">
                    <mxGeometry x="393" y="217" width="60" height="30" as="geometry"/>
                </mxCell>
                <mxCell id="17" value="error" style="text;html=1;strokeColor=none;fillColor=none;align=center;verticalAlign=middle;whiteSpace=wrap;rounded=0;" parent="1" vertex="1">
                    <mxGeometry x="-9.5" y="297" width="60" height="30" as="geometry"/>
                </mxCell>
                <mxCell id="tuJECXELKrIchDs7tuP_-50" value="" style="rounded=0;whiteSpace=wrap;html=1;" parent="1" vertex="1">
                    <mxGeometry x="470" y="80" width="20" height="40" as="geometry"/>
                </mxCell>
                <mxCell id="tuJECXELKrIchDs7tuP_-60" value="" style="rounded=0;whiteSpace=wrap;html=1;" parent="1" vertex="1">
                    <mxGeometry x="470" y="160" width="20" height="40" as="geometry"/>
                </mxCell>
                <mxCell id="26" value="" style="endArrow=none;dashed=1;html=1;rounded=0;entryX=0.5;entryY=1;entryDx=0;entryDy=0;dashPattern=8 8;startArrow=none;" edge="1" parent="1" target="25">
                    <mxGeometry width="50" height="50" relative="1" as="geometry">
                        <mxPoint x="360" y="360" as="sourcePoint"/>
                        <mxPoint x="360" y="-80" as="targetPoint"/>
                    </mxGeometry>
                </mxCell>
                <mxCell id="30" style="edgeStyle=none;html=1;exitX=1;exitY=1;exitDx=0;exitDy=0;entryX=0;entryY=0;entryDx=0;entryDy=0;dashed=1;" edge="1" parent="1" source="25" target="28">
                    <mxGeometry relative="1" as="geometry"/>
                </mxCell>
                <mxCell id="25" value="" style="rounded=0;whiteSpace=wrap;html=1;" vertex="1" parent="1">
                    <mxGeometry x="350" y="200" width="20" height="40" as="geometry"/>
                </mxCell>
                <mxCell id="29" value="" style="endArrow=none;dashed=1;html=1;rounded=0;entryX=0.5;entryY=1;entryDx=0;entryDy=0;dashPattern=8 8;" edge="1" parent="1" target="28">
                    <mxGeometry width="50" height="50" relative="1" as="geometry">
                        <mxPoint x="480" y="360" as="sourcePoint"/>
                        <mxPoint x="480.5" y="200" as="targetPoint"/>
                    </mxGeometry>
                </mxCell>
                <mxCell id="31" style="edgeStyle=none;html=1;exitX=0;exitY=1;exitDx=0;exitDy=0;entryX=1;entryY=0;entryDx=0;entryDy=0;dashed=1;" edge="1" parent="1" source="28" target="12">
                    <mxGeometry relative="1" as="geometry"/>
                </mxCell>
                <mxCell id="28" value="" style="rounded=0;whiteSpace=wrap;html=1;" vertex="1" parent="1">
                    <mxGeometry x="470.5" y="240" width="20" height="40" as="geometry"/>
                </mxCell>
                <mxCell id="32" value="error" style="text;html=1;strokeColor=none;fillColor=none;align=center;verticalAlign=middle;whiteSpace=wrap;rounded=0;" vertex="1" parent="1">
                    <mxGeometry x="279" y="257" width="60" height="30" as="geometry"/>
                </mxCell>
            </root>
        </mxGraphModel>
    </diagram>
</mxfile>